<svg width="103" height="103" viewBox="0 0 103 103" fill="none" xmlns="http://www.w3.org/2000/svg">
<path d="M-3.49234e-05 24.592C-3.49234e-05 20.5405 0.706632 16.96 2.11997 13.8507C3.5333 10.7414 5.41774 8.15024 7.7733 6.07736C10.0346 4.09869 12.5786 2.59113 15.4053 1.55469C18.3262 0.518243 21.2471 1.85928e-05 24.168 1.85928e-05C27.0889 1.85928e-05 29.9626 0.518243 32.7893 1.55469C35.7102 2.59113 38.3484 4.09869 40.704 6.07736C42.9653 8.15024 44.8026 10.7414 46.216 13.8507C47.6293 16.96 48.336 20.5405 48.336 24.592V29.68H33.92V24.592C33.92 21.1058 32.9306 18.5618 30.952 16.96C29.0675 15.264 26.8062 14.416 24.168 14.416C21.5297 14.416 19.2213 15.264 17.2426 16.96C15.3582 18.5618 14.416 21.1058 14.416 24.592V77.7334C14.416 81.2196 15.3582 83.8107 17.2426 85.5067C19.2213 87.1085 21.5297 87.9094 24.168 87.9094C26.8062 87.9094 29.0675 87.1085 30.952 85.5067C32.9306 83.8107 33.92 81.2196 33.92 77.7334V58.7947H22.472V46.0747H48.336V77.7334C48.336 81.9734 47.6293 85.6009 46.216 88.616C44.8026 91.6311 42.9653 94.128 40.704 96.1067C38.3484 98.1796 35.7102 99.7342 32.7893 100.771C29.9626 101.807 27.0889 102.325 24.168 102.325C21.2471 102.325 18.3262 101.807 15.4053 100.771C12.5786 99.7342 10.0346 98.1796 7.7733 96.1067C5.41774 94.128 3.5333 91.6311 2.11997 88.616C0.706632 85.6009 -3.49234e-05 81.9734 -3.49234e-05 77.7334V24.592Z" fill="black"/>
<rect x="54.064" y="0.477356" width="48" height="102" rx="24" fill="#EBD3F0"/>
</svg>
